<?xml version="1.0" encoding="iso-8859-1"?>
<!-- Generator: Adobe Illustrator 19.1.0, SVG Export Plug-In . SVG Version: 6.00 Build 0)  -->
<svg version="1.1" id="Capa_1" xmlns="http://www.w3.org/2000/svg" xmlns:xlink="http://www.w3.org/1999/xlink" x="0px" y="0px"
	 viewBox="0 0 64.492 64.492" style="enable-background:new 0 0 64.492 64.492;" xml:space="preserve">
<g>
	<g id="group-50svg">
		<path id="path-1_44_" style="fill:#EDC951;" d="M64.033,34.849c0,16.372-13.273,29.643-29.646,29.643
			c-16.374,0-29.648-13.271-29.648-29.643S18.012,5.205,34.386,5.205C50.759,5.205,64.033,18.477,64.033,34.849z"/>
		<path id="path-2_44_" style="fill:#8B71B5;" d="M45.839,41.029c0,5.895-4.779,10.674-10.675,10.674
			c-5.895,0-10.676-4.779-10.676-10.674s4.781-10.674,10.676-10.674C41.06,30.355,45.839,35.134,45.839,41.029z"/>
		<path id="path-3_44_" style="fill:#E56A77;" d="M28.494,47.841c7.929-7.157,14.888,0,14.888,0s-3.263,4.242-8.531,3.855
			C29.582,51.309,28.494,47.841,28.494,47.841z"/>
		<path id="path-4_44_" d="M31.458,50.424c-6.713,0-12.175-5.461-12.175-12.174s5.462-12.174,12.175-12.174
			c6.714,0,12.176,5.461,12.176,12.174S38.172,50.424,31.458,50.424z M31.458,29.076c-5.058,0-9.175,4.116-9.175,9.174
			s4.117,9.174,9.175,9.174c5.06,0,9.176-4.116,9.176-9.174S36.518,29.076,31.458,29.076z"/>
		<path id="path-5_44_" d="M24.787,22.738c-0.248,0-0.499-0.061-0.728-0.189l-2.322-1.293c-1.134-0.208-2.343,0.097-3.179,0.933
			c-0.586,0.586-1.535,0.586-2.121,0c-0.586-0.585-0.586-1.535,0-2.121c0.401-0.402,0.849-0.743,1.332-1.02l-1.001-0.557
			c-0.724-0.403-0.985-1.317-0.581-2.04c0.403-0.725,1.318-0.985,2.04-0.581l4.597,2.559c1.138,0.306,2.178,0.902,3.025,1.749
			c0.529,0.529,0.588,1.367,0.137,1.964C25.694,22.529,25.244,22.738,24.787,22.738z"/>
		<path id="path-6_37_" d="M38,22.738c-0.457,0-0.906-0.209-1.198-0.596c-0.451-0.597-0.393-1.435,0.137-1.964
			c0.846-0.847,1.886-1.443,3.025-1.749l4.598-2.559c0.723-0.404,1.636-0.144,2.04,0.581c0.403,0.723,0.142,1.637-0.581,2.04
			l-1.001,0.557c0.482,0.277,0.93,0.618,1.332,1.02c0.586,0.586,0.586,1.536,0,2.121c-0.586,0.586-1.535,0.586-2.121,0
			c-0.835-0.835-2.037-1.145-3.18-0.933l-2.322,1.293C38.499,22.677,38.248,22.738,38,22.738z"/>
		<path id="path-7_34_" d="M31.822,50.441c-0.258,0-0.52-0.009-0.787-0.028c-6.213-0.456-7.621-4.721-7.678-4.902
			c-0.175-0.56-0.009-1.17,0.426-1.562c2.622-2.368,5.445-3.568,8.389-3.568c4.987,0,8.436,3.487,8.579,3.635
			c0.52,0.535,0.569,1.369,0.113,1.96C40.725,46.158,37.366,50.441,31.822,50.441z M26.709,45.414
			c0.618,0.761,1.935,1.815,4.545,2.007c2.85,0.21,5.018-1.199,6.209-2.234c-1.133-0.791-3.027-1.806-5.291-1.806
			C30.316,43.381,28.482,44.064,26.709,45.414z"/>
		<path id="path-8_24_" d="M31.607,62.287c-17.175,0-31.148-13.971-31.148-31.144C0.459,13.971,14.432,0,31.607,0
			C48.78,0,62.753,13.971,62.753,31.143C62.753,48.316,48.78,62.287,31.607,62.287z M31.607,3C16.086,3,3.459,15.625,3.459,31.143
			c0,15.519,12.627,28.144,28.148,28.144c15.52,0,28.146-12.625,28.146-28.144C59.753,15.625,47.127,3,31.607,3z"/>
	</g>
</g>
<g>
</g>
<g>
</g>
<g>
</g>
<g>
</g>
<g>
</g>
<g>
</g>
<g>
</g>
<g>
</g>
<g>
</g>
<g>
</g>
<g>
</g>
<g>
</g>
<g>
</g>
<g>
</g>
<g>
</g>
</svg>
