<svg
    xmlns="http://www.w3.org/2000/svg"
    xmlns:xlink="http://www.w3.org/1999/xlink"
    version="1.1"
    baseProfile="basic"
    x="0px"
    y="0px"
    viewBox="0 0 100 125"
    xml:space="preserve"><path
    d="M50,94C25.7,94,6,74.3,6,50S25.7,6,50,6s44,19.7,44,44S74.3,94,50,94z M50,14c-19.9,0-36,16.1-36,36  s16.1,36,36,36s36-16.1,36-36S69.9,14,50,14z M72,34l-16,4v8l16-4V34z M28,34l16,4v8l-16-4V34z M50,54c-11.9,0-21.7,8.7-23.7,20h8.2  c1.8-6.9,8-12,15.5-12s13.7,5.1,15.5,12h8.2C71.7,62.7,61.9,54,50,54z"/>
</svg>