<?xml version="1.0" encoding="iso-8859-1"?>
<!-- Generator: Adobe Illustrator 19.1.0, SVG Export Plug-In . SVG Version: 6.00 Build 0)  -->
<svg version="1.1" id="Capa_1" xmlns="http://www.w3.org/2000/svg" xmlns:xlink="http://www.w3.org/1999/xlink" x="0px" y="0px"
	 viewBox="0 0 67.321 67.321" style="enable-background:new 0 0 67.321 67.321;" xml:space="preserve">
<g>
	<g id="group-51svg">
		<path id="path-1_45_" style="fill:#EDC951;" d="M67.321,35.821c0,16.616-13.471,30.086-30.089,30.086
			c-16.619,0-30.089-13.47-30.089-30.086S20.613,5.736,37.232,5.736C53.85,5.736,67.321,19.205,67.321,35.821z"/>
		<path id="path-2_45_" d="M48.289,45.427h-32c-0.828,0-1.5-0.672-1.5-1.5c0-0.829,0.672-1.5,1.5-1.5h32c0.828,0,1.5,0.671,1.5,1.5
			C49.789,44.755,49.117,45.427,48.289,45.427z"/>
		<path id="path-3_45_" d="M48.289,26.429h-9c-0.828,0-1.5-0.671-1.5-1.5c0-0.828,0.672-1.5,1.5-1.5h9c0.828,0,1.5,0.672,1.5,1.5
			C49.789,25.758,49.117,26.429,48.289,26.429z"/>
		<path id="path-4_45_" d="M26.289,26.429h-10c-0.828,0-1.5-0.671-1.5-1.5c0-0.828,0.672-1.5,1.5-1.5h10c0.828,0,1.5,0.672,1.5,1.5
			C27.789,25.758,27.117,26.429,26.289,26.429z"/>
		<path id="path-5_45_" d="M31.59,64.586C14.171,64.586,0,50.417,0,33.001C0,15.584,14.171,1.415,31.59,1.415
			s31.59,14.169,31.59,31.586C63.18,50.417,49.009,64.586,31.59,64.586z M31.59,4.415C15.825,4.415,3,17.238,3,33.001
			c0,15.762,12.825,28.586,28.59,28.586s28.59-12.824,28.59-28.586C60.18,17.238,47.355,4.415,31.59,4.415z"/>
	</g>
</g>
<g>
</g>
<g>
</g>
<g>
</g>
<g>
</g>
<g>
</g>
<g>
</g>
<g>
</g>
<g>
</g>
<g>
</g>
<g>
</g>
<g>
</g>
<g>
</g>
<g>
</g>
<g>
</g>
<g>
</g>
</svg>
