<svg
    xmlns:dc="http://purl.org/dc/elements/1.1/"
    xmlns:cc="http://creativecommons.org/ns#"
    xmlns:rdf="http://www.w3.org/1999/02/22-rdf-syntax-ns#"
    xmlns:svg="http://www.w3.org/2000/svg"
    xmlns="http://www.w3.org/2000/svg"
    xmlns:sodipodi="http://sodipodi.sourceforge.net/DTD/sodipodi-0.dtd"
    xmlns:inkscape="http://www.inkscape.org/namespaces/inkscape"
    version="1.1"
    x="0px"
    y="0px"
    viewBox="0 0 100 125">
    <g transform="translate(0,-952.36218)"><path
        style="color:#ffffff;enable-background:accumulate;"
        d="m 50,963.36218 c -13.25485,0 -24,10.0883 -24,25 0,5.3743 1.51099,11.3306 3.8125,15.59382 L 50,1041.3622 70.1875,1003.956 C 72.48914,999.69258 74,993.73648 74,988.36218 c 0,-14.9117 -10.74516,-25 -24,-25 z m 0,12 c 6.62742,0 12,5.3726 12,12 0,6.6273 -5.37258,12 -12,12 -6.62742,0 -12,-5.3727 -12,-12 0,-6.6274 5.37258,-12 12,-12 z"
        fill="#000000"
        stroke="none"
        marker="none"
        visibility="visible"
        display="inline"
        overflow="visible"/></g>
</svg>