<svg
    xmlns="http://www.w3.org/2000/svg"
    xmlns:xlink="http://www.w3.org/1999/xlink"
    version="1.1"
    x="0px"
    y="0px"
    viewBox="0 0 100 125"
    enable-background="new 0 0 100 100"
    xml:space="preserve">
    <g><path
        d="M50,89.5c-21.78,0-39.5-17.72-39.5-39.5S28.22,10.5,50,10.5S89.5,28.22,89.5,50S71.78,89.5,50,89.5z M50,14.5   c-19.575,0-35.5,15.925-35.5,35.5c0,19.575,15.925,35.5,35.5,35.5c19.575,0,35.5-15.925,35.5-35.5C85.5,30.425,69.575,14.5,50,14.5   z"/><path
        d="M64,72H36c-1.104,0-2-0.896-2-2s0.896-2,2-2h28c1.104,0,2,0.896,2,2S65.104,72,64,72z"/><path
        d="M35,54c-3.86,0-7-3.14-7-7s3.14-7,7-7s7,3.14,7,7S38.86,54,35,54z M35,44c-1.654,0-3,1.346-3,3s1.346,3,3,3s3-1.346,3-3   S36.655,44,35,44z"/><path
        d="M65,54c-3.859,0-7-3.14-7-7s3.141-7,7-7s7,3.14,7,7S68.859,54,65,54z M65,44c-1.654,0-3,1.346-3,3s1.346,3,3,3s3-1.346,3-3   S66.654,44,65,44z"/></g>

</svg>