<svg
    xmlns="http://www.w3.org/2000/svg"
    xmlns:xlink="http://www.w3.org/1999/xlink"
    version="1.1"
    x="0px"
    y="0px"
    viewBox="0 0 139 173.75"
    enable-background="new 0 0 139 139"
    xml:space="preserve"><path
    d="M69.699,131.334c-33.544,0-60.834-27.29-60.834-60.835c0-33.544,27.29-60.834,60.834-60.834s60.834,27.29,60.834,60.834  C130.533,104.044,103.243,131.334,69.699,131.334z M69.699,15.665c-30.235,0-54.834,24.599-54.834,54.834  c0,30.236,24.599,54.835,54.834,54.835s54.834-24.599,54.834-54.835C124.533,40.264,99.935,15.665,69.699,15.665z"/><polygon
    points="77.286,85.871 77.251,85.906 77.217,85.871 69.699,93.389 62.182,85.871 62.146,85.906 62.112,85.871   50.356,97.627 54.6,101.869 62.147,94.321 69.695,101.869 69.699,101.865 69.704,101.869 77.252,94.321 84.8,101.869 89.042,97.626   "/><polygon
    points="30.643,82.275 27.736,77.027 39.521,70.5 27.736,63.973 30.643,58.724 51.905,70.5 "/><polygon
    points="108.755,82.275 87.492,70.5 108.755,58.724 111.661,63.973 99.877,70.5 111.661,77.027 "/>
</svg>