<svg
    xmlns="http://www.w3.org/2000/svg"
    xmlns:xlink="http://www.w3.org/1999/xlink"
    version="1.1"
    x="0px"
    y="0px"
    viewBox="0 0 100 125"
    style="enable-background:new 0 0 100 100;"
    xml:space="preserve">
    <g><path
        d="M34.2,29.2c4.6-3.5,10-5.3,15.8-5.3c14.4,0,26.1,11.7,26.1,26.1c0,0,0,0,0,0.1c-1.9-2-5.1-2-7.1-0.1c-2,1.9-2,5.1-0.1,7.1   l11.3,11.6l12.5-11.4c2-1.9,2.2-5,0.3-7.1c-1.9-2-5-2.2-7.1-0.3l0,0C86,30,69.9,13.9,50,13.9c-7.9,0-15.5,2.5-21.8,7.3   c-2.2,1.7-2.6,4.8-1,7C28.9,30.4,32,30.9,34.2,29.2z"/><path
        d="M10.4,51.7c1.2,0,2.4-0.4,3.4-1.3l0.1-0.1C14.1,70.1,30.2,86.1,50,86.1c7.7,0,15-2.4,21.2-6.9c2.2-1.6,2.7-4.8,1.1-7   c-1.6-2.2-4.8-2.7-7-1.1c-4.5,3.3-9.8,5-15.3,5c-14.3,0-25.9-11.5-26.1-25.8c1.9,1.9,5,1.9,7,0c2-1.9,2-5.1,0.1-7.1L19.6,31.7   L7.1,43c-2,1.9-2.2,5-0.3,7.1C7.7,51.2,9.1,51.7,10.4,51.7z"/></g>
</svg>