<svg
    xmlns:dc="http://purl.org/dc/elements/1.1/"
    xmlns:cc="http://creativecommons.org/ns#"
    xmlns:rdf="http://www.w3.org/1999/02/22-rdf-syntax-ns#"
    xmlns:svg="http://www.w3.org/2000/svg"
    xmlns="http://www.w3.org/2000/svg"
    xmlns:sodipodi="http://sodipodi.sourceforge.net/DTD/sodipodi-0.dtd"
    xmlns:inkscape="http://www.inkscape.org/namespaces/inkscape"
    version="1.1"
    x="0px"
    y="0px"
    viewBox="0 0 100 125">
    <g transform="translate(0,-952.36218)"><path
        style="text-indent:0;text-transform:none;direction:ltr;block-progression:tb;baseline-shift:baseline;color:#000000;enable-background:accumulate;"
        d="m 49.999998,956.36215 c -25.3695,0 -46,20.6306 -46,46.00005 0,25.3695 20.6305,46 46,46 25.3695,0 46.000004,-20.6305 46.000004,-46 0,-25.36945 -20.630504,-46.00005 -46.000004,-46.00005 z m 0,6 c 22.1269,0 40.000004,17.8732 40.000004,40.00005 0,22.1269 -17.873104,40 -40.000004,40 -22.1269,0 -40,-17.8731 -40,-40 0,-22.12685 17.8731,-40.00005 40,-40.00005 z m -17,21 c -3.8661,0 -7,3.134 -7,7 0,3.866 3.1339,7 7,7 3.866,0 7,-3.134 7,-7 0,-3.866 -3.134,-7 -7,-7 z m 34,0 c -3.8661,0 -7,3.134 -7,7 0,3.866 3.1339,7 7,7 3.866,0 7,-3.134 7,-7 0,-3.866 -3.134,-7 -7,-7 z m -45,26.00005 c -2.0934,0.022 -3.2749,2.5463 -2.8437,3.9688 4.4919,12.8077 16.6275,22.0312 30.8437,22.0312 14.2162,0 26.352,-9.2234 30.843804,-22.0312 0.6136,-1.7993 -0.9428,-3.9714 -2.8438,-3.9688 l -56.000004,0 z m 4.625,6 46.75,0 c -4.5447,8.3367 -13.2887,14 -23.375,14 -10.0863,0 -18.8302,-5.6633 -23.375,-14 z"
        fill="#000000"
        fill-opacity="1"
        stroke="none"
        marker="none"
        visibility="visible"
        display="inline"
        overflow="visible"/></g>
  
</svg>